<svg xmlns="http://www.w3.org/2000/svg" xmlns:xlink="http://www.w3.org/1999/xlink" id="Layer_1" x="0" y="0" version="1.1" viewBox="0 0 108 116" xml:space="preserve" style="enable-background:new 0 0 108 116"><style type="text/css">.st0{fill:#c2001d}.st1{fill:#edebda}.st2{fill:#cec9ae}.st3{fill:#28384b}.st4{fill:#25b99a}</style><title>g348</title><desc>Created with Sketch.</desc><g id="Page-1"><g id="g348"><path id="Fill-1690" d="M92,8v8H78V8H30v8H16V8H0v22h108V8H92" class="st0"/><path id="Fill-1691" d="M16,30H0v86h108V30H16" class="st1"/><path id="Fill-1692" d="M74,44H16v58h76V44H74L74,44z M56,48h14v14H56V48z M56,66h14v14 H56V66z M38,66h14v14H38V66z M38,48h14v14H38V48z M20,48h14v14H20V48z M20,66h14v14H20V66z M20,84h14v14H20V84z M38,84h14v14H38 V84z M56,84h14v14H56V84z M74,84h14v14H74V84z M74,66h14v14H74V66z M74,48h14v14H74V48z" class="st2"/><path id="Fill-3129" d="M16,0h14v16H16V0z" class="st3"/><path id="Fill-3130" d="M78,0h14v16H78V0z" class="st3"/><path id="Fill-3131" d="M56,66h14v14H56V66z" class="st4"/></g></g></svg>