<svg xmlns="http://www.w3.org/2000/svg" xmlns:xlink="http://www.w3.org/1999/xlink" id="Layer_1" x="0" y="0" version="1.1" viewBox="0 0 112 116" xml:space="preserve" style="enable-background:new 0 0 112 116"><style type="text/css">.st0{fill:#cec9ae}.st1{fill:#edebda}.st2{fill:#f4f3ed}.st3{fill:#61b972}.st4{fill:#f8b563}.st5{fill:#8e8872}</style><title>g350</title><desc>Created with Sketch.</desc><g id="Page-1"><g id="g350"><path id="Fill-11" d="M10,116L10,116c-5.5,0-10-4.5-10-10V60h20v46 C20,111.5,15.5,116,10,116" class="st0"/><path id="Fill-12" d="M20,0h92v22H20V0z" class="st0"/><path id="Fill-13" d="M20,70v36c0,5.5-4.5,10-10,10h92c5.5,0,10-4.5,10-10V26H20V70" class="st1"/><path id="Fill-14" d="M20,22h92v4H20V22z" class="st2"/><path id="Fill-1643" d="M32,32h24v24H32V32z" class="st3"/><path id="Fill-1644" d="M100,34H68c-1.1,0-2-0.9-2-2c0-1.1,0.9-2,2-2h32c1.1,0,2,0.9,2,2 C102,33.1,101.1,34,100,34" class="st0"/><path id="Fill-1645" d="M100,46H68c-1.1,0-2-0.9-2-2s0.9-2,2-2h32c1.1,0,2,0.9,2,2 S101.1,46,100,46" class="st0"/><path id="Fill-1646" d="M100,58H68c-1.1,0-2-0.9-2-2s0.9-2,2-2h32c1.1,0,2,0.9,2,2 S101.1,58,100,58" class="st0"/><path id="Fill-1647" d="M100,70H34c-1.1,0-2-0.9-2-2s0.9-2,2-2h66c1.1,0,2,0.9,2,2 S101.1,70,100,70" class="st0"/><path id="Fill-1648" d="M64,82H34c-1.1,0-2-0.9-2-2s0.9-2,2-2h30c1.1,0,2,0.9,2,2 S65.1,82,64,82" class="st0"/><path id="Fill-1649" d="M64,94H34c-1.1,0-2-0.9-2-2s0.9-2,2-2h30c1.1,0,2,0.9,2,2 S65.1,94,64,94" class="st0"/><path id="Fill-1650" d="M64,106H34c-1.1,0-2-0.9-2-2s0.9-2,2-2h30c1.1,0,2,0.9,2,2 S65.1,106,64,106" class="st0"/><path id="Fill-1651" d="M76,80h24v24H76V80z" class="st4"/><path id="Fill-1652" d="M44,8h44v8H44V8z" class="st5"/></g></g></svg>