<svg xmlns="http://www.w3.org/2000/svg" xmlns:xlink="http://www.w3.org/1999/xlink" id="Layer_1" x="0" y="0" version="1.1" viewBox="0 0 116 98" xml:space="preserve" style="enable-background:new 0 0 116 98"><style type="text/css">.st0{fill:#d6c990}.st1{fill:#f8e7a1}.st2{fill:#7383bf}.st3{fill:#6472a0}.st4{fill:#d1af43}.st5{fill:#f0ce49}</style><title>g223</title><desc>Created with Sketch.</desc><g id="Page-1"><g id="g223"><path id="Fill-2665" d="M0,52.2V98l5.6-2.2l19-19L0,52.2" class="st0"/><path id="Fill-2666" d="M30,10l-7.2-7.2L0,12v9.1l30,30V10" class="st0"/><path id="Fill-2667" d="M58,43.3V38L30,10v41l10.1,10.1L58,43.3" class="st1"/><path id="Fill-2668" d="M58,79.1v-4.6l-2.3,2.3L58,79.1" class="st2"/><path id="Fill-2669" d="M76.2,56.2L58,74.5v4.6l13.3,13.3L86,86V66L76.2,56.2" class="st3"/><path id="Fill-2670" d="M86,15.3V0L61.6,10.5l14.7,14.7L86,15.3" class="st0"/><path id="Fill-2671" d="M60.7,40.7L58,38v5.3L60.7,40.7" class="st0"/><path id="Fill-2672" d="M96.5,4.9L86,0v15.3L96.5,4.9" class="st1"/><path id="Fill-2673" d="M116,64.9V16.5L91.8,40.7L116,64.9" class="st2"/><path id="Fill-2674" d="M86,86l30,12v-2L86,66V86" class="st2"/><path id="Fill-2675" d="M30,71.3V51.1l-30-30v31.1l24.6,24.6L30,71.3" class="st4"/><path id="Fill-2676" d="M41.5,90.9L58,98V79.1l-2.3-2.3L41.5,90.9" class="st5"/><path id="Fill-2677" d="M30,51.1v20.3l10.1-10.1L30,51.1" class="st5"/><path id="Fill-2678" d="M58,98l13.3-5.7L58,79.1V98" class="st4"/><path id="Fill-2679" d="M30,0l-7.2,2.9L30,10V0" class="st4"/><path id="Fill-2680" d="M58,12L30,0v10l28,28V12" class="st5"/><path id="Fill-2681" d="M58,38l2.7,2.7l15.6-15.6L61.6,10.5L58,12V38" class="st0"/><path id="Fill-2682" d="M86,66V46.5l-9.8,9.8L86,66" class="st4"/><path id="Fill-2682_1_" d="M86,66V46.5l-9.8,9.8L86,66" class="st4"/><path id="Fill-2688" d="M58,43.3v31.1l18.2-18.2L60.7,40.7L58,43.3" class="st4"/><path id="Fill-2683" d="M91.8,40.7L86,46.5V66l30,30V64.9L91.8,40.7" class="st5"/><path id="Fill-2684" d="M30,82.2l-5.4-5.4l-19,19L30,86V82.2" class="st4"/><path id="Fill-2685" d="M30,86l6.7,2.9L30,82.2V86" class="st5"/><path id="Fill-2686" d="M40.1,61.2l15.6,15.6l2.3-2.3V43.3L40.1,61.2" class="st5"/><path id="Fill-2687" d="M86,15.3l-9.8,9.8l9.8,9.8V15.3" class="st4"/><path id="Fill-2688_1_" d="M58,43.3v31.1l18.2-18.2L60.7,40.7L58,43.3" class="st4"/><path id="Fill-2689" d="M86,34.9l5.8,5.8L116,16.5V14L96.5,4.9L86,15.3V34.9" class="st5"/><path id="Fill-2690" d="M24.6,76.8l5.4,5.4V71.3L24.6,76.8" class="st4"/><path id="Fill-2691" d="M40.1,61.2L30,71.3v10.8l6.7,6.7l4.8,2.1l14.2-14.2L40.1,61.2" class="st5"/><path id="Fill-2692" d="M76.2,25.1L60.7,40.7l15.6,15.6l9.8-9.8V34.9L76.2,25.1" class="st4"/><path id="Fill-2670_1_" d="M86,15.3V0L61.6,10.5l14.7,14.7L86,15.3" class="st0"/><path id="Fill-2676_1_" d="M41.5,90.9L58,98V79.1l-2.3-2.3L41.5,90.9" class="st5"/><path id="Fill-2677_1_" d="M30,51.1v20.3l10.1-10.1L30,51.1" class="st5"/><path id="Fill-2684_1_" d="M30,82.2l-5.4-5.4l-19,19L30,86V82.2" class="st4"/><path id="Fill-2686_1_" d="M40.1,61.2l15.6,15.6l2.3-2.3V43.3L40.1,61.2" class="st5"/><path id="Fill-2687_1_" d="M86,15.3l-9.8,9.8l9.8,9.8V15.3" class="st4"/><path id="Fill-2690_1_" d="M24.6,76.8l5.4,5.4V71.3L24.6,76.8" class="st4"/><path id="Fill-2691_1_" d="M40.1,61.2L30,71.3v10.8l6.7,6.7l4.8,2.1l14.2-14.2L40.1,61.2" class="st5"/><path id="Fill-2692_1_" d="M76.2,25.1L60.7,40.7l15.6,15.6l9.8-9.8V34.9L76.2,25.1" class="st4"/><path id="Fill-2693" d="M86,46.5l5.8-5.8L86,34.9V46.5" class="st5"/><path id="Fill-2693_1_" d="M86,46.5l5.8-5.8L86,34.9V46.5" class="st5"/><path id="Fill-2681_1_" d="M58,38l2.7,2.7l15.6-15.6L61.6,10.5L58,12V38" class="st4"/></g></g></svg>