<svg xmlns="http://www.w3.org/2000/svg" xmlns:xlink="http://www.w3.org/1999/xlink" id="Layer_1" x="0" y="0" version="1.1" viewBox="0 0 114 116" xml:space="preserve" style="enable-background:new 0 0 114 116"><style type="text/css">.st0{fill:#034686}.st1{fill:#efecde}.st2{fill:#d5d0bb}.st3{fill:#36495e}.st4{fill:#7f6e5d}.st5{fill:#26b99a}.st6{fill:#fff}</style><title>m304</title><desc>Created with Sketch.</desc><g id="Page-1"><g id="m304"><path id="Fill-713" d="M92,8v8H78V8H30v8H16V8H0v22h108V8H92" class="st0"/><path id="Fill-714" d="M16,30H0v86h108V30H16" class="st1"/><path id="Fill-715" d="M74,44H16v58h76V44H74L74,44z M56,48h14v14H56V48z M56,66h14v14H56 V66z M38,66h14v14H38V66z M38,48h14v14H38V48z M20,48h14v14H20V48z M20,66h14v14H20V66z M20,84h14v14H20V84z M38,84h14v14H38V84z M56,84h14v14H56V84z M74,84h14v14H74V84z M74,66h14v14H74V66z M74,48h14v14H74V48z" class="st2"/><path id="Fill-716" d="M16,0h14v16H16V0z" class="st3"/><path id="Fill-717" d="M78,0h14v16H78V0z" class="st3"/><path id="Fill-718" d="M38,66h14v14H38V66z" class="st4"/><path id="Fill-2444" d="M114,90c0,13.3-10.7,24-24,24s-24-10.7-24-24 c0-13.3,10.7-24,24-24S114,76.7,114,90" class="st5"/><path id="Fill-2445" d="M103.1,78.4c-0.9-0.6-2.2-0.4-2.8,0.5L89.2,94.9l-7.9-6.5 c-0.9-0.7-2.1-0.6-2.8,0.3c-0.7,0.9-0.6,2.1,0.3,2.8l9.6,7.9c0.4,0.3,0.8,0.5,1.3,0.5c0.1,0,0.2,0,0.3,0c0.6-0.1,1-0.4,1.4-0.8 l12.4-17.9C104.3,80.2,104,79,103.1,78.4" class="st6"/></g></g></svg>